# xmcd CD database file
#
# Track frame offsets:
#	182
#	6627
#	17935
#	37235
#	52050
#	74445
#	80595
#	94825
#	107532
#	116497
#	145980
#	160320
#	187272
#	192212
#	208130
#	213112
#	219012
#	236750
#	262590
#	285830
#	298537
#
# Disc length: 4017 seconds
#
# Revision: 2
# Processed by: cddbd v1.4b42PL1 Copyright (c) Steve Scherf et al.
# Submitted via: CDex 1.40Beta8
#
DISCID=3c0faf15
DTITLE=Various Artist - The Cowboy Poetry Gathering - Elko, Nevada
DYEAR=1993
DGENRE=Poetry
TTITLE0=Waddie Mitchell/Introduction
TTITLE1=Mike Lee/Man's Best Friend
TTITLE2=Wallace McRae/Old Proc
TTITLE3=Jim Haynes/Paddy McGee
TTITLE4=Paul Zarzyski/Benny Reynolds' Bareback Riggin'
TTITLE5=John Dofflemyer/New World Order
TTITLE6=Joel Nelson/A Time To Decide
TTITLE7=Sourdough Slim/Ode To A Meadowlark
TTITLE8=Hank Real Bird/Lone Star Woman
TTITLE9=Randy Rieman/Lasca
TTITLE10=Virginia Bennett/The Dead Yearling
TTITLE11=Cipriano Vigil/Se Ve Triste El Hombre (The Man Looks Sad)
TTITLE12=Stan Lehman/Little Brown Mouse
TTITLE13=Buck Ramsey/Hittin' The Trail Tonight
TTITLE14=Sue Wallis/Whoop It Up
TTITLE15=Bud McKague/Rodeo Cowboy's Prayer
TTITLE16=Mike Beck/Ruben's Song
TTITLE17=R.W. Hampton/Streets of Laredo
TTITLE18=Tom Eaton/Riding Jay From Iowa
TTITLE19=Ross and Patty Knox/Annie Laurie - Bad Half Hour
TTITLE20=Larry McWhorter/Roses Are Red
EXTD=YEAR: 1993
EXTT0=
EXTT1=
EXTT2=
EXTT3=
EXTT4=
EXTT5=
EXTT6=
EXTT7=
EXTT8=
EXTT9=
EXTT10=
EXTT11=
EXTT12=
EXTT13=
EXTT14=
EXTT15=
EXTT16=
EXTT17=
EXTT18=
EXTT19=
EXTT20=
PLAYORDER=
